# xmcd
#
# Track frame offsets:
#	150
#	12613
#	23898
#	39155
#	50483
#	63838
#	80350
#	92155
#	106878
#	120815
#
# Disc length: 1792 seconds
#
# Revision: 3
# Processed by: cddbd v1.5.2PL0 Copyright (c) Steve Scherf et al.
# Submitted via: audiograbber 1.83.01
#
DISCID=6e06fe0a
DTITLE=Tracy Byrd - Tracy Bryd
DYEAR=1993
DGENRE=Country
TTITLE0=Tracy Byrd - That's The Thing About A Memory
TTITLE1=Tracy Byrd - Back In The Swing Of Things
TTITLE2=Tracy Byrd - Someone To Give My Love To
TTITLE3=Tracy Byrd - Holdin' Heaven
TTITLE4=Tracy Byrd - Why
TTITLE5=Tracy Byrd and Dawn Sears - An Out Of Control Raging Fire
TTITLE6=Tracy Byrd - Hat Trick
TTITLE7=Tracy Byrd - Why Don't That Telephone Ring
TTITLE8=Tracy Byrd - Edge Of A Memory
TTITLE9=Tracy Byrd - Talk To Me Texas
EXTD=YEAR: 1993 ID3G: 2
EXTT0=Tracy Byrd
EXTT1=Tracy Byrd
EXTT2=Tracy Byrd
EXTT3=Tracy Byrd
EXTT4=Tracy Byrd
EXTT5=Tracy Byrd, Dawn Sears
EXTT6=Tracy Byrd
EXTT7=Tracy Byrd
EXTT8=Tracy Byrd
EXTT9=Tracy Byrd
PLAYORDER=
